<svg width="31" height="31" viewBox="0 0 31 31" fill="none" xmlns="http://www.w3.org/2000/svg">
<path id="Vector" d="M25.2428 19.4724C24.3353 19.4756 23.4414 19.6939 22.6346 20.1095C21.8279 20.5251 21.1312 21.1259 20.6017 21.8629L11.2308 17.2589C11.4135 16.6861 11.509 16.0891 11.5143 15.4882C11.509 14.887 11.4135 14.2901 11.2308 13.7174L20.6017 9.11332C21.4098 10.2092 22.5825 10.981 23.9087 11.2899C25.2352 11.5989 26.6282 11.4248 27.8378 10.7989C29.0473 10.173 29.9938 9.1364 30.5069 7.87538C31.0203 6.61438 31.0669 5.21171 30.6382 3.91947C30.2095 2.62725 29.3339 1.53023 28.1687 0.825624C27.0032 0.121036 25.6247 -0.144951 24.2807 0.075492C22.9368 0.295952 21.7157 0.988375 20.8367 2.02831C19.9578 3.06825 19.4788 4.38748 19.4857 5.74887C19.4899 6.04598 19.5195 6.3422 19.5742 6.63425L9.88455 11.5039C9.3542 10.9424 8.71431 10.4955 8.0044 10.1909C7.2945 9.88639 6.52965 9.73056 5.75713 9.73309C4.23025 9.73309 2.7659 10.3394 1.68622 11.4187C0.606554 12.498 0 13.9618 0 15.4882C0 17.0144 0.606554 18.4783 1.68622 19.5576C2.7659 20.6368 4.23025 21.2431 5.75713 21.2431C6.52965 21.2456 7.2945 21.0898 8.0044 20.7852C8.71431 20.4806 9.3542 20.0339 9.88455 19.4724L19.5742 24.342C19.5184 24.6398 19.4889 24.9419 19.4857 25.2451C19.4857 26.3833 19.8233 27.4959 20.4559 28.4424C21.0885 29.3887 21.9876 30.1264 23.0397 30.562C24.0916 30.9976 25.2492 31.1114 26.3659 30.8894C27.4828 30.6673 28.5086 30.1193 29.3137 29.3145C30.1188 28.5095 30.6671 27.484 30.8894 26.3677C31.1115 25.2514 30.9975 24.0943 30.5617 23.0426C30.1259 21.9911 29.3881 21.0923 28.4413 20.4599C27.4945 19.8276 26.3815 19.4901 25.2428 19.4901V19.4724ZM25.2428 2.65003C25.8559 2.65003 26.4553 2.83178 26.965 3.17228C27.4748 3.51278 27.8721 3.99676 28.1068 4.563C28.3414 5.12924 28.4028 5.75232 28.2833 6.35343C28.1635 6.95455 27.8684 7.50671 27.4348 7.94008C27.0013 8.37346 26.449 8.6686 25.8476 8.78818C25.2462 8.90774 24.623 8.84638 24.0565 8.61182C23.49 8.37729 23.0059 7.9801 22.6652 7.4705C22.3246 6.9609 22.1428 6.36176 22.1428 5.74887C22.1474 4.92844 22.4755 4.14294 23.056 3.5628C23.6363 2.98267 24.4221 2.65468 25.2428 2.65003ZM5.75713 18.587C5.14401 18.587 4.54466 18.4051 4.03486 18.0646C3.52508 17.7241 3.12773 17.2401 2.89311 16.674C2.65848 16.1077 2.59709 15.4846 2.71671 14.8836C2.83632 14.2824 3.13156 13.7303 3.5651 13.2968C3.99865 12.8635 4.551 12.5683 5.15235 12.4488C5.75369 12.3293 6.37701 12.3906 6.94345 12.6252C7.5099 12.8596 7.99405 13.2568 8.33468 13.7664C8.67531 14.2761 8.85712 14.8751 8.85712 15.4882C8.85248 16.3085 8.52438 17.0941 7.94403 17.6742C7.36365 18.2543 6.57787 18.5822 5.75713 18.587ZM25.2428 28.3262C24.6297 28.3262 24.0303 28.1444 23.5206 27.8038C23.0108 27.4633 22.6135 26.9794 22.3788 26.4132C22.1442 25.847 22.0828 25.2238 22.2023 24.6228C22.3219 24.0217 22.6172 23.4695 23.0508 23.036C23.4843 22.6027 24.0366 22.3076 24.638 22.188C25.2394 22.0685 25.8626 22.1298 26.4291 22.3644C26.9956 22.5988 27.4798 22.996 27.8204 23.5057C28.161 24.0153 28.3428 24.6143 28.3428 25.2274C28.3382 26.0478 28.0101 26.8333 27.4296 27.4134C26.8493 27.9935 26.0635 28.3214 25.2428 28.3262Z" fill="#FF0000"/>
</svg>
