<svg width="39" height="39" viewBox="0 0 39 39" fill="none" xmlns="http://www.w3.org/2000/svg">
<g id="SVGRepo_iconCarrier">
<path id="Vector" d="M30.6429 33.4286C30.6429 34.9062 30.0559 36.3233 29.011 37.3682C27.9662 38.413 26.5491 39 25.0714 39H5.57143C4.09379 39 2.67668 38.413 1.63183 37.3682C0.586988 36.3233 0 34.9062 0 33.4286V13.9286C0 12.4509 0.586988 11.0338 1.63183 9.98898C2.67668 8.94414 4.09379 8.35715 5.57143 8.35715V11.1429C4.83261 11.1429 4.12405 11.4364 3.60163 11.9588C3.07921 12.4812 2.78571 13.1898 2.78571 13.9286V33.4286C2.78571 34.1674 3.07921 34.8759 3.60163 35.3984C4.12405 35.9208 4.83261 36.2143 5.57143 36.2143H25.0714C25.8102 36.2143 26.5188 35.9208 27.0412 35.3984C27.5636 34.8759 27.8571 34.1674 27.8571 33.4286H30.6429Z" fill="#FF0000"/>
<path id="Vector_2" d="M13.9286 2.78571C13.1898 2.78571 12.4812 3.07921 11.9588 3.60163C11.4364 4.12405 11.1429 4.83261 11.1429 5.57143V25.0714C11.1429 25.8102 11.4364 26.5188 11.9588 27.0412C12.4812 27.5636 13.1898 27.8571 13.9286 27.8571H33.4286C34.1674 27.8571 34.8759 27.5636 35.3984 27.0412C35.9208 26.5188 36.2143 25.8102 36.2143 25.0714V5.57143C36.2143 4.83261 35.9208 4.12405 35.3984 3.60163C34.8759 3.07921 34.1674 2.78571 33.4286 2.78571H13.9286ZM13.9286 0H33.4286C34.9062 0 36.3233 0.586988 37.3682 1.63183C38.413 2.67668 39 4.09379 39 5.57143V25.0714C39 26.5491 38.413 27.9662 37.3682 29.011C36.3233 30.0559 34.9062 30.6429 33.4286 30.6429H13.9286C12.4509 30.6429 11.0338 30.0559 9.98898 29.011C8.94414 27.9662 8.35715 26.5491 8.35715 25.0714V5.57143C8.35715 4.09379 8.94414 2.67668 9.98898 1.63183C11.0338 0.586988 12.4509 0 13.9286 0Z" fill="#FF0000"/>
</g>
</svg>
