<svg width="60" height="56" viewBox="0 0 60 56" fill="none" xmlns="http://www.w3.org/2000/svg">
<g id="Group">
<path id="Vector" d="M60 0H0V56H60V0Z" fill="white"/>
<g id="Group_2">
<path id="Vector_2" d="M56.0777 5.20862H3.92224V50.7954H56.0777V5.20862Z" fill="#B6E0F0"/>
<path id="Vector_3" opacity="0.8" d="M25.2611 23.1661C27.5456 23.1661 29.3977 20.4407 29.3977 17.0786C29.3977 13.7166 27.5456 10.9911 25.2611 10.9911C22.9765 10.9911 21.1245 13.7166 21.1245 17.0786C21.1245 20.4407 22.9765 23.1661 25.2611 23.1661Z" fill="#F9F8C8"/>
<g id="Group_3" opacity="0.5">
<path id="Vector_4" d="M33.8775 50.7955H3.96912L14.6014 32.2853C16.9759 28.1474 20.8708 28.1474 23.2453 32.2853L27.2808 39.3203L33.8775 50.7955Z" fill="#275C91"/>
</g>
<g id="Group_4" opacity="0.5">
<path id="Vector_5" d="M56.0777 42.5033V50.7952H21.1243L27.7452 39.32L36.5524 24.0726C38.9917 19.8232 43.0045 19.8232 45.4437 24.0726L56.0777 42.5033Z" fill="#275C91"/>
</g>
</g>
<path id="Vector_6" opacity="0.1" d="M60 0H30V56H60V0Z" fill="#040000"/>
</g>
</svg>
