<svg width="29" height="29" viewBox="0 0 29 29" fill="none" xmlns="http://www.w3.org/2000/svg">
<g id="SVGRepo_iconCarrier">
<path id="Vector" d="M27.1875 7.25H23.5625V1.8125C23.5625 0.810641 22.7519 0 21.75 0H7.25C6.24814 0 5.4375 0.810641 5.4375 1.8125V7.25H1.8125C0.810641 7.25 0 8.06064 0 9.0625V23.5625C0 24.5644 0.810641 25.375 1.8125 25.375H5.4375V27.1875C5.4375 28.1894 6.24814 29 7.25 29H21.75C22.7519 29 23.5625 28.1894 23.5625 27.1875V25.375H27.1875C28.1894 25.375 29 24.5644 29 23.5625V9.0625C29 8.06064 28.1894 7.25 27.1875 7.25ZM9.0625 3.625H19.9375V7.25H9.0625V3.625ZM19.9375 25.375H9.0625V18.125H19.9375V25.375Z" fill="#231F20"/>
</g>
</svg>
