<svg width="29" height="27" viewBox="0 0 29 27" fill="none" xmlns="http://www.w3.org/2000/svg">
<g id="SVGRepo_iconCarrier">
<path id="Vector" d="M15.0904 0.591272L17.6956 5.88016L16.6132 5.8815L16.471 5.88629L16.3272 5.89595L16.1847 5.91042L15.9632 5.9484C14.5061 6.25156 13.4351 7.54046 13.4351 9.05959C13.4351 10.7055 14.6863 12.0592 16.2896 12.2214L16.5103 12.2361L16.471 12.2355L16.3272 12.2451L16.1847 12.2596L15.9632 12.2976C14.5828 12.5848 13.549 13.7567 13.4439 15.1709L13.4351 15.4088L13.4425 15.6263C13.5493 17.2049 14.8086 18.4674 16.3858 18.5788L16.6132 18.5869L16.9663 18.5883L16.6132 18.589L16.471 18.5938L16.3272 18.6034L16.1847 18.6178L15.9632 18.6558C14.5828 18.9431 13.549 20.1149 13.4439 21.5292L13.4351 21.7671L13.4425 21.9846C13.4692 22.3791 13.5678 22.7538 13.7254 23.0959L6.55019 26.8756C5.77266 27.2851 4.86328 26.6245 5.01252 25.7583L6.46934 17.3045L0.321676 11.3215C-0.308108 10.7085 0.0392354 9.63947 0.909014 9.51379L9.39932 8.2869L13.1898 0.591272C13.5781 -0.197091 14.7021 -0.197091 15.0904 0.591272ZM27.2069 20.7077C27.7919 20.7077 28.2662 21.182 28.2662 21.7671C28.2662 22.3034 27.8676 22.7466 27.3506 22.8167L27.2069 22.8264H16.6132C16.0282 22.8264 15.5539 22.3521 15.5539 21.7671C15.5539 21.2307 15.9525 20.7875 16.4694 20.7173L16.6132 20.7077H27.2069ZM27.2069 14.3494C27.7919 14.3494 28.2662 14.8237 28.2662 15.4088C28.2662 15.9451 27.8676 16.3883 27.3506 16.4585L27.2069 16.4681H16.6132C16.0282 16.4681 15.5539 15.9938 15.5539 15.4088C15.5539 14.8725 15.9525 14.4292 16.4694 14.359L16.6132 14.3494H27.2069ZM27.2069 8.00023C27.7919 8.00023 28.2662 8.47452 28.2662 9.05959C28.2662 9.59591 27.8676 10.0391 27.3506 10.1093L27.2069 10.119H16.6132C16.0282 10.119 15.5539 9.64467 15.5539 9.05959C15.5539 8.52328 15.9525 8.08005 16.4694 8.0099L16.6132 8.00023H27.2069Z" fill="#0B1719"/>
</g>
</svg>
