<svg width="32" height="31" viewBox="0 0 32 31" fill="none" xmlns="http://www.w3.org/2000/svg">
<g id="SVGRepo_iconCarrier">
<path id="Vector" d="M24.1347 3.65357C24.7788 3.34206 25.2249 2.68474 25.2249 1.92182C25.2249 1.41212 25.0225 0.923299 24.662 0.562888C24.3016 0.202477 23.8128 0 23.3031 0C22.7934 0 22.3046 0.202477 21.9442 0.562888C21.5838 0.923299 21.3813 1.41212 21.3813 1.92182C21.3813 2.6953 21.838 3.3579 22.4953 3.66413C21.735 7.78231 20.5682 10.8472 16.2256 11.5019C16.2256 11.5019 17.3951 17.3492 22.8649 17.3492C28.3347 17.3492 28.8891 11.56 28.8891 11.56C24.4515 11.787 24.0766 6.20895 24.1347 3.65357Z" fill="#F19534"/>
<path id="Vector_2" d="M8.3535 3.65357C7.70937 3.34206 7.26323 2.68474 7.26323 1.92182C7.26323 1.41212 7.46571 0.923299 7.82612 0.562888C8.18653 0.202477 8.67535 0 9.18505 0C9.69475 0 10.1836 0.202477 10.544 0.562888C10.9044 0.923299 11.1069 1.41212 11.1069 1.92182C11.1069 2.6953 10.6502 3.3579 9.99285 3.66413C10.7531 7.78231 11.9199 10.8472 16.2625 11.5019C16.2625 11.5019 15.0931 17.3492 9.62327 17.3492C4.15348 17.3492 3.60175 11.5626 3.60175 11.5626C8.03671 11.787 8.41157 6.20895 8.3535 3.65357Z" fill="#F19534"/>
<path id="Vector_3" d="M22.791 17.3491C22.8147 17.3491 22.8385 17.3518 22.8622 17.3518C24.3696 17.3518 25.5021 16.9109 26.3521 16.2747L22.791 17.3491Z" fill="#FFCA28"/>
<path id="Vector_4" d="M30.6604 2.34687C29.7813 2.22807 28.9418 3.06491 28.7887 4.21061C28.6937 4.92601 28.8864 5.5939 29.2586 6.02419L28.625 8.65086C28.625 8.65086 27.6562 14.8572 22.7619 16.0821C18.8496 17.0615 17.432 9.89951 17.0888 7.68731C17.8333 7.31773 18.3481 6.55217 18.3481 5.66253C18.3481 4.41388 17.337 3.40281 16.0883 3.40281C14.8397 3.40281 13.8286 4.41388 13.8286 5.66253C13.8286 6.55745 14.3513 7.33093 15.1089 7.69523C14.837 9.87839 13.6385 16.8027 9.41476 16.0794C5.12763 15.3429 3.25597 8.12288 2.82303 6.15883C3.3378 5.73645 3.62555 4.99201 3.51995 4.19213C3.36684 3.04379 2.45873 2.22015 1.49254 2.34951C0.526351 2.47886 -0.130974 3.51369 0.0221375 4.65939C0.133012 5.49358 0.645145 6.15619 1.28663 6.40697L4.64453 27.2698C4.64453 27.2698 7.57478 29.585 16.0883 29.585C24.6019 29.585 27.5321 27.2698 27.5321 27.2698L30.898 6.35154C31.4418 6.06643 31.8694 5.42495 31.975 4.63827C32.1308 3.48993 31.5421 2.46566 30.6604 2.34687Z" fill="#FFCA28"/>
<path id="Vector_5" d="M16.1939 24.2709C17.614 24.2709 18.7651 22.8987 18.7651 21.206C18.7651 19.5133 17.614 18.1411 16.1939 18.1411C14.7739 18.1411 13.6227 19.5133 13.6227 21.206C13.6227 22.8987 14.7739 24.2709 16.1939 24.2709Z" fill="#0B1719"/>
<path id="Vector_6" d="M16.1939 18.8988C16.2942 19.0096 16.384 19.2129 16.1939 19.6089C16.0038 20.0049 14.9796 20.5408 14.7921 20.649C14.6047 20.7599 14.4806 20.7097 14.4226 20.6648C14.1454 20.4431 14.251 19.9415 14.4305 19.6353C14.8159 18.9727 15.6316 18.289 16.1939 18.8988Z" fill="#69F0AE"/>
<path id="Vector_7" d="M16.0039 22.3491C15.7135 22.489 14.7605 22.914 15.0746 23.4182C15.2594 23.7165 15.6422 23.8432 15.9933 23.8591C16.3444 23.8749 16.6902 23.764 17.0017 23.603C18.4801 22.8374 18.5988 20.8259 18.3111 20.6728C18.0154 20.5144 17.8148 20.9235 17.6617 21.0978C17.1961 21.6192 16.6329 22.0443 16.0039 22.3491Z" fill="#FF0000"/>
<path id="Vector_8" d="M30.3568 18.6981C30.7686 16.4199 29.2375 15.8497 29.2375 15.8497C29.2375 15.8497 28.2502 15.6702 27.7856 18.2335C27.321 20.7942 28.3083 20.9737 28.3083 20.9737C28.3083 20.9737 29.9423 20.9763 30.3568 18.6981Z" fill="#0B1719"/>
<path id="Vector_9" d="M29.6757 16.6285C30.0347 17.1089 29.6097 17.8191 28.9207 18.2916C28.7174 18.4315 28.4481 18.3787 28.4085 18.2626C28.2977 17.9299 28.3452 17.5524 28.493 17.233C28.9312 16.2747 29.4935 16.3856 29.6757 16.6285Z" fill="#69F0AE"/>
<path id="Vector_10" d="M1.7592 18.7668C1.34475 16.4912 2.8785 15.9184 2.8785 15.9184C2.8785 15.9184 3.86581 15.7388 4.33043 18.3022C4.79504 20.8628 3.80774 21.0423 3.80774 21.0423C3.80774 21.0423 2.17102 21.045 1.7592 18.7668Z" fill="#0B1719"/>
<path id="Vector_11" d="M3.34838 16.6918C3.70212 16.9558 3.55693 17.3016 3.2903 17.5418C2.98672 17.819 2.75441 18.1226 2.4957 18.4368C2.4561 18.4843 2.41123 18.5371 2.34787 18.5503C2.22644 18.5767 2.12876 18.4526 2.08916 18.3338C1.97565 18.0012 1.99677 17.6105 2.16572 17.3043C2.64617 16.4305 3.2111 16.5889 3.34838 16.6918Z" fill="#69F0AE"/>
<path id="Vector_12" d="M25.5786 20.9051C25.3965 21.9426 24.5649 22.6632 23.7175 22.5154C22.8701 22.3676 22.754 21.4832 22.9361 20.4458C23.1183 19.4083 23.5275 18.6137 24.3722 18.7615C25.2196 18.9094 25.7608 19.8703 25.5786 20.9051Z" fill="#F44336"/>
<path id="Vector_13" d="M7.21572 20.9051C7.39787 21.9426 8.22943 22.6632 9.07683 22.5154C9.92422 22.3676 10.0404 21.4832 9.85822 20.4458C9.67607 19.4083 9.2669 18.6137 8.42214 18.7615C7.57738 18.9094 7.03621 19.8703 7.21572 20.9051Z" fill="#F44336"/>
<path id="Vector_14" d="M8.44329 20.2134C8.25058 20.4299 7.78068 20.8655 7.61437 20.5328C7.38735 20.0788 7.70149 19.3924 8.06051 19.1654C8.41953 18.9384 8.71256 19.1179 8.76271 19.3211C8.82343 19.5798 8.61488 20.0181 8.44329 20.2134Z" fill="#040000"/>
<path id="Vector_15" d="M23.4641 20.876C23.2027 20.8364 23.1737 19.9362 23.8759 19.2287C24.2111 18.8908 24.6916 19.2921 24.5702 19.8333C24.454 20.348 23.9419 20.9499 23.4641 20.876Z" fill="#040000"/>
<path id="Vector_16" d="M27.9967 23.8221C26.4155 24.614 22.7883 26.7233 16.091 26.7233C9.39363 26.7233 5.76646 24.614 4.18519 23.8221C4.18519 23.8221 3.61761 24.1257 3.61761 24.4424V26.8738C3.61761 27.1985 3.78921 27.4968 4.06903 27.6631C5.30449 28.3917 9.06893 30.1129 16.0936 30.1129C23.1183 30.1129 26.8827 28.3917 28.1182 27.6631C28.2555 27.5821 28.3694 27.4667 28.4486 27.3283C28.5277 27.1899 28.5694 27.0332 28.5696 26.8738V24.4424C28.5643 24.1257 27.9967 23.8221 27.9967 23.8221Z" fill="#FFCA28"/>
<path id="Vector_17" d="M9.63653 27.1563C10.3757 27.3014 10.6001 27.3648 10.5499 27.7766C10.447 28.5871 8.76538 28.3943 7.77015 28.133C5.7137 27.5918 5.2966 27.0216 5.2966 26.5121C5.2966 26.0449 5.65562 25.9894 6.20999 26.1848C6.8726 26.4197 7.89686 26.8157 9.63653 27.1563Z" fill="#FFF59D"/>
<path id="Vector_18" d="M27.9967 24.3553C27.9967 24.3553 23.6224 26.8315 16.0909 26.8315C8.5594 26.8315 4.18515 24.3553 4.18515 24.3553" stroke="#040000" stroke-width="2" stroke-miterlimit="10" stroke-linecap="round"/>
<path id="Vector_19" d="M6.30242 10.9818C7.70683 9.97867 8.46183 8.18093 8.52782 5.31932C8.5331 5.06061 8.60702 4.98406 8.74693 4.96822C8.97132 4.94446 9.00828 5.14773 9.00564 5.29292C8.94228 8.38156 8.54894 10.3113 6.99142 11.3989C6.91487 11.4517 6.36842 11.7843 6.13611 11.5547C5.85892 11.2854 6.21266 11.0452 6.30242 10.9818Z" fill="#FFCA28"/>
<path id="Vector_20" d="M7.58799 1.99836C7.54311 1.52055 7.65398 0.659952 8.90792 0.269253C9.27486 0.155739 9.50189 0.33525 9.54412 0.475162C9.64972 0.823624 9.34349 0.960896 9.20358 1.00577C8.24003 1.31728 8.19251 1.79773 7.99452 2.10396C7.79654 2.41018 7.60383 2.14355 7.58799 1.99836Z" fill="#FFCA28"/>
<path id="Vector_21" d="M19.8317 10.3483C21.1014 9.22106 21.9436 7.96184 22.4979 5.09495C22.5481 4.84153 22.622 4.77289 22.7593 4.77817C22.9837 4.78345 22.9942 4.992 22.9705 5.13455C22.5006 8.19151 22.0544 9.06267 20.489 10.7971C20.3121 10.9924 19.8818 11.1693 19.639 10.966C19.4199 10.7839 19.6733 10.4908 19.8317 10.3483Z" fill="#FFCA28"/>
<path id="Vector_22" d="M21.7006 2.02217C21.6557 1.54435 21.7666 0.683756 23.0206 0.293057C23.3875 0.179543 23.6145 0.359053 23.6568 0.498966C23.7624 0.847427 23.4561 0.9847 23.3162 1.02958C22.3527 1.34108 22.3052 1.82154 22.1072 2.12776C21.9118 2.43398 21.7165 2.16736 21.7006 2.02217Z" fill="#FFCA28"/>
<path id="Vector_23" d="M7.52199 16.8027C4.45447 15.4115 3.55164 11.7817 3.07118 10.2057C3.00782 9.99714 3.0395 9.79914 3.24805 9.73579C3.4566 9.67243 3.58067 9.80706 3.64667 10.0156C3.99513 11.1587 5.34938 14.9759 8.14499 16.0609C8.34826 16.1401 8.66505 16.3328 8.49346 16.6628C8.37994 16.8766 8.01564 17.0271 7.52199 16.8027Z" fill="#FFF59D"/>
<path id="Vector_24" d="M2.52999 4.39799C2.38216 4.09176 2.32144 3.80138 1.51628 3.46612C1.31301 3.38164 1.17838 3.19421 1.23382 2.98302C1.28925 2.77183 1.50044 2.61344 1.80667 2.66624C2.80189 2.83783 3.01836 3.8489 3.0606 4.2C3.1002 4.5379 2.68046 4.70421 2.52999 4.39799Z" fill="#FFF59D"/>
<path id="Vector_25" d="M24.755 16.8027C27.8226 15.4115 28.7254 11.7817 29.2058 10.2057C29.2692 9.99714 29.2375 9.79914 29.029 9.73579C28.8204 9.67243 28.6964 9.80706 28.6304 10.0156C28.2819 11.1587 26.9276 14.9759 24.132 16.0609C23.9288 16.1401 23.612 16.3328 23.7836 16.6628C23.8971 16.8766 24.2614 17.0271 24.755 16.8027Z" fill="#FFF59D"/>
<path id="Vector_26" d="M29.747 4.39799C29.8948 4.09176 29.9555 3.80138 30.7607 3.46612C30.9639 3.38164 31.0986 3.19421 31.0431 2.98302C30.9877 2.77183 30.7765 2.61344 30.4703 2.66624C29.4751 2.83783 29.2586 3.8489 29.2164 4.2C29.1768 4.5379 29.5991 4.70421 29.747 4.39799Z" fill="#FFF59D"/>
<path id="Vector_27" d="M14.8582 5.69679C15.0192 5.36681 15.3016 4.91539 16.223 4.72532C16.5767 4.65141 16.6797 4.49829 16.648 4.26599C16.5846 3.78289 15.9827 3.81721 15.658 3.89377C14.5757 4.14719 14.3355 5.1081 14.2906 5.48824C14.2457 5.8499 14.6998 6.02677 14.8582 5.69679Z" fill="#FFF59D"/>
</g>
</svg>
